<?xml version="1.0" encoding="utf-8"?>
<!-- Generator: Adobe Illustrator 21.0.0, SVG Export Plug-In . SVG Version: 6.00 Build 0)  -->
<svg version="1.1" id="Layer_1" xmlns="http://www.w3.org/2000/svg" xmlns:xlink="http://www.w3.org/1999/xlink" x="0px" y="0px"
	 viewBox="0 0 85 74" style="enable-background:new 0 0 85 74;" xml:space="preserve">
<style type="text/css">
	.st0{fill:#027CAE;}
	.st1{fill:none;}
</style>
<g>
	<polygon class="st0" points="41.8,1.3 14.5,16.4 43.1,22.6 70.4,7.6 	"/>
	<path class="st0" d="M9.8,20.6V66L41,72.7V27.4L9.8,20.6z M36.4,50.8L26,48.8c-1-0.2-1.8-1.3-1.8-2.5c0-1.2,0.8-2,1.8-1.8l10.4,1.9
		c1,0.2,1.8,1.3,1.8,2.5C38.2,50.2,37.4,51,36.4,50.8z"/>
	<polygon class="st0" points="70.4,7.6 41.8,1.3 14.5,16.4 43.1,22.6 	"/>
	<polygon class="st1" points="49,25.1 49,71 51.6,69.5 51.6,23.7 	"/>
	<polygon class="st1" points="46.1,26.8 46.1,72.7 46.5,72.4 46.5,26.5 	"/>
	<polygon class="st1" points="75.2,10.8 74.7,11.1 74.7,56.4 75.2,56.2 	"/>
	<polygon class="st1" points="59.3,19.5 59.3,65.2 61.9,63.7 61.9,18.1 	"/>
	<polygon class="st1" points="64.5,16.7 64.5,62.2 67.1,60.8 67.1,15.3 	"/>
	<polygon class="st1" points="54.2,22.3 54.2,68.1 56.8,66.6 56.8,20.9 	"/>
	<polygon class="st1" points="69.6,13.9 69.6,59.3 72.2,57.9 72.2,12.5 	"/>
	<polygon class="st0" points="67.1,15.3 67.1,60.8 69.6,59.3 69.6,13.9 	"/>
	<polygon class="st0" points="72.2,12.5 72.2,57.9 74.7,56.4 74.7,11.1 	"/>
	<polygon class="st0" points="61.9,18.1 61.9,63.7 64.5,62.2 64.5,16.7 	"/>
	<polygon class="st0" points="51.6,23.7 51.6,69.5 54.2,68.1 54.2,22.3 	"/>
	<polygon class="st0" points="46.5,26.5 46.5,72.4 49,71 49,25.1 	"/>
	<polygon class="st0" points="56.8,20.9 56.8,66.6 59.3,65.2 59.3,19.5 	"/>
</g>
</svg>
