<svg width="87" height="76" viewBox="0 0 87 76" xmlns="http://www.w3.org/2000/svg" xmlns:xlink="http://www.w3.org/1999/xlink"><title>FF35A5FF-CC09-4B9F-8D36-6F10E59C5495</title><defs><path id="a" d="M0 76h86.862V0H0z"/></defs><g fill="none" fill-rule="evenodd"><mask id="b" fill="#fff"><use xlink:href="#a"/></mask><path d="M19.188 59.107c-8.958 0-16.248-7.323-16.248-16.323 0-6.425 3.783-12.28 9.646-14.906l1.306-.587-.601-1.296a16.388 16.388 0 0 1-1.513-6.857c0-8.999 7.29-16.322 16.248-16.322 8.958 0 16.248 7.323 16.248 16.322 0 2.366-.499 4.681-1.513 6.857l-.602 1.296 1.307.587c5.863 2.626 9.645 8.481 9.645 14.906 0 9-7.29 16.323-16.248 16.323a16.21 16.21 0 0 1-7.445-1.82V55.48l6.603-6.633-1.995-1.986-4.608 4.642v-5.869l6.603-6.632-1.995-2.004-4.608 4.643v-7.96h-2.802v7.946l-4.608-4.629-1.977 2.004 6.585 6.615v5.873l-4.608-4.629-1.977 1.986 6.585 6.616v1.834a16.263 16.263 0 0 1-7.428 1.81zm47.644 4.25c-4.316 0-7.84-3.524-7.84-7.877 0-3.11 1.822-5.942 4.659-7.203l1.307-.587-.602-1.296a7.708 7.708 0 0 1-.74-3.316c0-4.335 3.508-7.876 7.84-7.876 4.317 0 7.841 3.523 7.841 7.876a7.907 7.907 0 0 1-.74 3.316l-.6 1.296 1.306.587a7.898 7.898 0 0 1 4.66 7.203c0 4.336-3.508 7.876-7.841 7.876a7.757 7.757 0 0 1-3.232-.721V52.077h-2.803v5.03l-3.207-3.221-1.982 1.99 5.189 5.213v1.563a7.683 7.683 0 0 1-3.215.704zm6.018 9.827v-7.542a10.52 10.52 0 0 0 3.232.513c5.863 0 10.643-4.802 10.643-10.692 0-3.749-1.96-7.22-5.124-9.138.327-1.053.499-2.141.499-3.247 0-5.89-4.78-10.692-10.643-10.692s-10.643 4.785-10.643 10.692c0 1.106.155 2.194.499 3.247a10.71 10.71 0 0 0-5.124 9.138c0 5.89 4.763 10.692 10.643 10.692 1.093 0 2.177-.174 3.215-.507v7.536H29.418V60.391a18.926 18.926 0 0 0 7.428 1.532c10.505 0 19.05-8.585 19.068-19.139A19.2 19.2 0 0 0 45.838 25.91a18.961 18.961 0 0 0 1.238-6.77c0-10.555-8.545-19.14-19.05-19.14C17.52 0 8.958 8.585 8.992 19.14c0 2.314.413 4.594 1.238 6.77A19.2 19.2 0 0 0 .155 42.784c0 10.554 8.545 19.139 19.05 19.139 2.544 0 5.063-.527 7.41-1.527v12.788H0V76h86.862v-2.816H72.85z" fill="#107BAE" mask="url(#b)"/></g></svg>