<?xml version="1.0" encoding="utf-8"?>
<!-- Generator: Adobe Illustrator 21.0.0, SVG Export Plug-In . SVG Version: 6.00 Build 0)  -->
<svg version="1.1" id="Layer_1" xmlns="http://www.w3.org/2000/svg" xmlns:xlink="http://www.w3.org/1999/xlink" x="0px" y="0px"
	 viewBox="0 0 100 125" style="enable-background:new 0 0 100 125;" xml:space="preserve">
<style type="text/css">
	.st0{fill:#027CAE;}
	.st1{fill:none;}
</style>
<g>
	<polygon class="st0" points="49.1,3.4 13.4,23.1 50.8,31.2 86.4,11.5 	"/>
	<path class="st0" d="M7.4,28.6v59.2L48,96.6V37.5L7.4,28.6z M42,68l-13.5-2.5c-1.3-0.2-2.4-1.7-2.4-3.2c0-1.5,1.1-2.6,2.4-2.3
		L42,62.5c1.3,0.2,2.4,1.7,2.4,3.2C44.4,67.2,43.3,68.3,42,68z"/>
	<polygon class="st0" points="86.4,11.5 49.1,3.4 13.4,23.1 50.8,31.2 	"/>
	<polygon class="st1" points="58.5,34.5 58.5,94.4 61.9,92.5 61.9,32.6 	"/>
	<polygon class="st1" points="54.7,36.6 54.7,96.6 55.2,96.3 55.2,36.3 	"/>
	<polygon class="st1" points="92.6,15.9 92.1,16.2 92.1,75.3 92.6,75 	"/>
	<polygon class="st1" points="72,27.2 72,86.8 75.4,84.8 75.4,25.3 	"/>
	<polygon class="st1" points="78.7,23.5 78.7,83 82.1,81 82.1,21.6 	"/>
	<polygon class="st1" points="65.2,30.8 65.2,90.6 68.6,88.7 68.6,29 	"/>
	<polygon class="st1" points="85.4,19.8 85.4,79.2 88.8,77.2 88.8,18 	"/>
	<polygon class="st0" points="82.1,21.6 82.1,81 85.4,79.2 85.4,19.8 	"/>
	<polygon class="st0" points="88.8,18 88.8,77.2 92.1,75.3 92.1,16.2 	"/>
	<polygon class="st0" points="75.4,25.3 75.4,84.8 78.7,83 78.7,23.5 	"/>
	<polygon class="st0" points="61.9,32.6 61.9,92.5 65.2,90.6 65.2,30.8 	"/>
	<polygon class="st0" points="55.2,36.3 55.2,96.3 58.5,94.4 58.5,34.5 	"/>
	<polygon class="st0" points="68.6,29 68.6,88.7 72,86.8 72,27.2 	"/>
</g>
</svg>
