<svg width="86" height="74" viewBox="0 0 86 74" xmlns="http://www.w3.org/2000/svg"><title>DE89AE37-648A-4CBD-8C18-E78B9E5F8581</title><path d="M79.4 0v3h2.3L27.9 56.9v-4.6L78.6 1.6h-2.5L27.9 49.8v-4.6L70.1 3h.3v-.3l1.1-1.1h-1.1V0H17.401v3h7.5v12.7H26.6l-.3.299v2.5L41.801 3h4.6L26.3 23.099V25.6L48.901 3H53.5L26.3 30.1v.9h-1.499v11.8H3V3h5.3V0H0v45.8h24.801V74H69V45.8h1.3V44h1.101L82.1 33.3v4.6l-6 6.1h2.5l.8-.8v2.6h5.801V0H79.4zM27.9 38.1L63 3h4.6L27.9 42.7v-4.6zm0-7L55.9 3h4.6L27.9 35.7v-4.6zm0-21.3L34.701 3h4.6L27.9 14.4V9.8zM27.8 3h4.4l-4.4 4.4V3zm.1 56.3L82.2 4.999v4.6L27.9 63.9v-4.6zm0 7.099L82.2 12.1v4.599L27.9 71v-4.601zM82.2 19.2v4.6L34.9 71h-4.599L82.2 19.2zm0 7v4.6l-12 12h-4.1v4.1L42 71h-4.599L82.2 26.2zm0 14.1v2.5h-2.499l2.499-2.5zm-16.1 9.099V54l-17 17h-4.6l21.6-21.601zm0 7.1V61.1L56.2 71h-4.6l14.5-14.501zm-.1 7.1V68.2L63.2 71h-4.6l7.4-7.401z" fill="#107BAE" fill-rule="evenodd"/></svg>