<svg width="98" height="70" viewBox="0 0 98 70" xmlns="http://www.w3.org/2000/svg"><title>44581370-A8ED-402B-922E-BCD46C126E8F</title><g fill="#107BAE" fill-rule="evenodd"><path d="M98 70h-3.5V26.25C94.5 13.706 84.294 3.5 71.75 3.5h-45.5C13.706 3.5 3.5 13.706 3.5 26.25V70H0V26.25C0 11.776 11.776 0 26.25 0h45.5C86.224 0 98 11.776 98 26.25V70z"/><path d="M68.025 52.65c-2.464 0-4.338-1.971-4.338-4.337 0-2.365 1.972-4.337 4.338-4.337 2.464 0 4.337 1.972 4.337 4.337 0 2.366-1.971 4.337-4.337 4.337M28.989 37.57c.098-.099.098-.395.098-.69.888-3.647 2.267-7.196 4.239-10.45a.77.77 0 0 1 .394-.393c.1-.1.296-.198.493-.296 1.183-.494 4.929-1.676 14.886-1.676 9.956.098 13.603 1.182 14.884 1.676.197.098.395.098.493.296l.394.393c1.972 3.254 3.353 6.803 4.239 10.45.099.295.099.492.099.69a228.324 228.324 0 0 0-40.219 0m1.182 15.081c-2.464 0-4.337-1.971-4.337-4.337 0-2.365 1.972-4.337 4.337-4.337 2.366 0 4.338 1.972 4.338 4.337 0 2.366-1.873 4.337-4.338 4.337m48.106-20.01h-1.183c-2.268 0-3.845 2.563-3.845 2.563-.098.296-.393.591-.689 1.084a52.135 52.135 0 0 1-.69-2.563c-.987-3.45-2.464-6.604-4.536-9.562-1.38-2.07-3.449-2.76-5.815-3.154-4.14-.69-8.28-.789-12.52-.789-4.14 0-8.378 0-12.518.789-2.268.394-4.337 1.183-5.816 3.154-2.07 2.958-3.549 6.112-4.534 9.562-.198.789-.395 1.577-.69 2.563a23.467 23.467 0 0 0-.691-1.084s-1.577-2.563-3.845-2.563h-1.182c-1.084 0-1.774.788-1.873 1.873v2.366c0 1.183.789 1.97 1.971 1.97H24.652c0 .1.098.1.098.199-.098.098-.296.098-.394.295-2.957 2.859-4.535 6.31-4.436 10.35 0 2.465.296 4.929.493 7.394.197 1.872.69 3.746 1.478 5.421.395.69.789 1.281 1.676 1.479.395.098.493.296.395.69v3.056c0 1.38.788 2.267 2.267 2.267h3.647c1.577 0 2.366-.788 2.366-2.366V65.17c5.52.395 11.04.59 16.66.59 5.618 0 11.04-.195 16.659-.59v2.464c0 1.578.788 2.366 2.366 2.366h3.647c1.38 0 2.267-.887 2.267-2.267v-3.057c0-.295 0-.591.395-.69.887-.197 1.28-.69 1.675-1.478.887-1.774 1.282-3.549 1.479-5.421.296-2.465.493-4.93.493-7.394.098-4.14-1.578-7.59-4.437-10.35-.099-.098-.295-.197-.393-.295 0-.1.098-.1.098-.198h4.83c1.183 0 1.972-.788 1.972-1.971.197-.789.197-1.578.197-2.366 0-1.085-.789-1.873-1.873-1.873"/></g></svg>