<svg width="103" height="26" viewBox="0 0 103 26" xmlns="http://www.w3.org/2000/svg" xmlns:xlink="http://www.w3.org/1999/xlink"><title>BD51C35D-D5DC-4006-A276-E64D0F059A7F</title><defs><path id="a" d="M13.013 0h12.965v26H.048V0z"/></defs><g fill="none" fill-rule="evenodd"><path fill="#FEFEFE" d="M0 3.845v18.31h11.405v-3.701H3.999V3.845zM15.094 3.574a2.234 2.234 0 0 1 2.23 2.236 2.231 2.231 0 0 1-2.23 2.234c-1.23 0-2.229-1-2.229-2.234 0-1.235.999-2.236 2.23-2.236zm-1.922 18.575h3.844V9.741h-3.844V22.15zM33.087 3.845h3.842v10.942l4.355-5.051h4.71l-5.04 5.744 4.936 6.675h-4.83l-4.08-6.135h-.051v6.135h-3.842zM19.143 9.744h3.69v1.695h.052c.512-.975 1.767-2.004 3.638-2.004 3.896 0 4.614 2.57 4.614 5.91v6.804h-3.845v-6.032c0-1.44-.026-3.289-2-3.289-1.998 0-2.305 1.567-2.305 3.186v6.135h-3.844V9.744z"/><path d="M57.342 20c-1.232 1.57-3.255 2.47-5.254 2.47-3.844 0-6.92-2.571-6.92-6.555 0-3.981 3.076-6.552 6.92-6.552 3.59 0 5.842 2.57 5.842 6.552v1.208h-8.918c.306 1.465 1.41 2.416 2.896 2.416 1.257 0 2.101-.642 2.742-1.516l2.692 1.978zm-3.255-5.496c.025-1.286-.975-2.365-2.36-2.365-1.69 0-2.612 1.157-2.715 2.365h5.075zM72.554 22.148h-3.539v-1.646h-.05c-.592.9-2.077 1.953-3.819 1.953-3.692 0-6.127-2.671-6.127-6.448 0-3.471 2.154-6.656 5.69-6.656 1.59 0 3.076.435 3.948 1.643h.05V3.845h3.847v18.303zm-6.615-9.406c-1.92 0-3.076 1.286-3.076 3.16 0 1.878 1.155 3.162 3.076 3.162 1.924 0 3.076-1.284 3.076-3.161 0-1.875-1.152-3.16-3.076-3.16z" fill="#FEFEFE"/><g transform="translate(76.35)"><mask id="b" fill="#fff"><use xlink:href="#a"/></mask><path d="M24.06 0H1.96C.907 0 .049.84.049 1.875v22.249C.048 25.159.906 26 1.961 26H24.06c1.058 0 1.918-.84 1.918-1.876V1.874C25.978.84 25.118 0 24.06 0" fill="#FEFEFE" mask="url(#b)"/></g><path d="M82.166 3.58c1.23 0 2.23 1.001 2.23 2.235a2.234 2.234 0 0 1-2.23 2.237 2.232 2.232 0 0 1-2.231-2.237c0-1.234.996-2.236 2.231-2.236zm-1.925 18.575h3.849V9.747h-3.85v12.408zM86.502 9.747h3.687v1.697h.052c.513-.976 1.769-2.004 3.64-2.004 3.893 0 4.613 2.568 4.613 5.91v6.805H94.65v-6.034c0-1.439-.026-3.29-2-3.29-2 0-2.306 1.568-2.306 3.187v6.137h-3.842V9.747z" fill="#107AAD"/></g></svg>